' Estudo de caso baseado no artigo de modelagem de sistemas industriais, Palazzo e Edelweizz (1998), apud Lutherer E. et al., 1994. 
' O estudo representa uma fábrica de concreto que inclui vendas, escritório e a planta industrial. 
' A planta é composta de vários receptáculos de armazenagem de cimento, areia, cascalho e água;
' um misturador para preparação do concreto; duas balanças para pesar os componentes;
' uma válvula de medição de componentes; controle de descarga de água;
'  duas esteiras de transporte para levar os ingredientes sólidos ao misturador.
' Os clientes preenchem uma ordem de pedido entregue pelo representante com o tipo 
' e quantidade de concreto para entrega em um ou mais dias pela transportadora da empresa.
' O departamento de vendas escalona a ordem e eventualmente encaminha a indústria para o encarregado de produção.
' A indústria providência a execução do pedido, através da área de produção e de matéria prima.
' A produção executa a ordem solicitando materiais que são entregues no local pelo encarregado do almoxarifado e estocagem.
' O operador das máquinas executa os controles de fabricação tendo como auxiliares os operários responsáveis 
' pela mistura dos componentes e pelo funcionário encarregado do controle de fluxo de trabalho.
' Caso algum produto da matéria prima fique abaixo do nível de segurança, 
' o encarregado da produção emite ordem para o departamento de compras providenciar o pedido da mercadoria que 
' após a entrega é verificado pelo setor de recebimento e distribuição se está entregue conforme foi feito o pedido.
' Após a fabricação, o produto é entregue na construção e o cliente efetua o pagamento 
' que é recebido pelo departamento financeiro da indústria.

@startuml 

class Funcionário {
  +nome: String
  +cpf: String
  +departamento: String 
  +telefone: String
  +salário: Double
  +dataContratação: Date
}

class Transportadora {
  +nome: String
  +cnpj: String
  +telefone: String
  +endereço: String
}

class Vendedor {
  +comissãoPorVenda: Double
}

Funcionário <|-- Vendedor


class Cliente {
  +descrição: String
  +cnpj: String
  +email: String
  +telefone: String
  +endereço: String
}

class Pedido {
  +número: Integer
  +data: Date
  +cliente: Cliente
  +representante: Funcionário
  +status: String
  +quantidade: Integer
  +unidadeDeMedida: String
  +tipoConcreto: String
  +endereçoEntrega: String
}

class "Matéria Prima" {
  +descrição: String
  +estoque: Integer
}

class Produto {
  +descrição: String
  +estoque: Integer
}

Cliente "1" ..> "0..*" Pedido :Realiza
Vendedor "1" ..> "0..*" Pedido :Providencia
Produto "1..*" ..> "1" "Matéria Prima" :Requer
Pedido "1" ..> "1" Produto :Possui
Transportadora "1" ..> "0..*" Pedido :Entrega

@enduml